<svg xmlns="http://www.w3.org/2000/svg" viewBox="0 0 520 620" fill="none">
  <defs>
    <linearGradient id="sky" x1="0" y1="0" x2="1" y2="1">
      <stop offset="0%" stop-color="#dfe7f1"/>
      <stop offset="55%" stop-color="#f2f0ff"/>
      <stop offset="100%" stop-color="#fff3e8"/>
    </linearGradient>
    <linearGradient id="shirt" x1="0" y1="0" x2="0" y2="1">
      <stop offset="0%" stop-color="#ff946d"/>
      <stop offset="100%" stop-color="#df6951"/>
    </linearGradient>
  </defs>
  <rect width="520" height="620" rx="260" fill="url(#sky)"/>
  <circle cx="420" cy="110" r="34" fill="#f1a501" opacity=".85"/>
  <ellipse cx="260" cy="560" rx="180" ry="24" fill="#14183e" opacity=".08"/>
  <path d="M300 520c-8-92 18-168 72-228 28-32 62-52 98-58v36c-28 6-52 22-72 46-42 48-58 108-50 204h-48z" fill="#5e6282"/>
  <circle cx="332" cy="170" r="46" fill="#ffd8c2"/>
  <path d="M286 188c12-34 38-52 72-52 34 0 58 18 70 52-18 8-38 12-70 12s-52-4-72-12z" fill="#14183e"/>
  <path d="M250 250c18 18 42 28 82 28s64-10 82-28v180c0 36-30 66-82 66s-82-30-82-66V250z" fill="url(#shirt)"/>
  <rect x="210" y="390" width="172" height="120" rx="18" fill="#14183e"/>
  <rect x="228" y="408" width="136" height="84" rx="10" fill="#fff" opacity=".15"/>
  <path d="M392 360h56l18 28-36 22-38-50z" fill="#8a79df"/>
  <circle cx="404" cy="352" r="10" fill="#f1a501"/>
</svg>
